<svg version="1.1" id="Layer_1" xmlns="http://www.w3.org/2000/svg" xmlns:xlink="http://www.w3.org/1999/xlink" x="0px" y="0px"
	 width="100%" viewBox="0 0 500 500" enable-background="new 0 0 500 500" xml:space="preserve">
<path fill="#000000" opacity="1.000000" stroke="none" 
	d="
M232.000000,501.000000 
	C154.666687,501.000000 77.833366,501.000000 1.000041,501.000000 
	C1.000027,334.333405 1.000027,167.666779 1.000014,1.000131 
	C167.666565,1.000087 334.333130,1.000087 500.999756,1.000044 
	C500.999847,167.666519 500.999847,334.333038 500.999939,500.999786 
	C411.500000,501.000000 322.000000,501.000000 232.000000,501.000000 
M227.796051,194.306931 
	C226.846313,193.232941 225.896591,192.158951 224.470444,190.546204 
	C221.701370,195.277908 219.179230,199.587662 216.173492,204.256592 
	C216.745651,205.855988 217.317810,207.455383 218.156036,209.637680 
	C219.137329,210.740921 220.118622,211.844162 221.299667,213.585861 
	C222.876022,215.410736 224.452377,217.235626 226.444199,219.541489 
	C229.523193,214.608231 232.404205,210.238419 234.944916,205.678955 
	C235.368301,204.919205 234.310928,203.334335 233.761063,201.535645 
	C232.897919,200.662094 232.034760,199.788544 230.953506,198.307724 
	C229.982742,197.177399 229.011963,196.047073 227.796051,194.306931 
M228.849808,185.552109 
	C226.212219,188.221970 227.271164,190.283157 230.157349,192.627029 
	C230.965256,193.472107 231.773163,194.317200 232.819473,195.823425 
	C234.461502,197.808334 236.103531,199.793259 238.193146,202.319199 
	C241.302261,197.298294 244.103363,192.891373 246.726303,188.380844 
	C247.029480,187.859467 246.342514,186.762268 245.973236,185.276260 
	C244.687042,183.761581 243.400833,182.246902 241.963394,180.160309 
	C241.317078,179.431885 240.670761,178.703461 239.766495,177.348755 
	C238.683273,176.196793 237.600052,175.044846 236.317719,173.681137 
	C235.539703,174.728409 234.999100,175.343170 234.584595,176.033630 
	C232.795593,179.013672 231.043564,182.015869 228.849808,185.552109 
M291.438385,219.429535 
	C292.280762,216.282700 293.123138,213.135880 294.403076,209.417374 
	C295.026642,207.064240 295.650177,204.711121 296.726379,201.770767 
	C300.239838,189.167297 301.812073,192.435928 291.569061,185.490173 
	C289.101349,183.863327 286.633667,182.236465 283.774261,180.109543 
	C281.605072,178.690384 279.435913,177.271210 276.873749,175.293182 
	C272.214355,172.006210 267.554993,168.719238 262.143250,164.901520 
	C260.275177,171.621338 258.693146,177.312149 256.764771,183.667389 
	C255.992294,186.384903 255.219803,189.102417 254.116501,192.427628 
	C253.441513,194.956100 252.766541,197.484589 251.673904,200.618835 
	C248.901260,209.471451 248.899902,209.473648 256.708557,214.273773 
	C257.122284,214.528107 257.590729,214.693420 258.438385,215.426788 
	C260.833466,217.005356 263.228577,218.583923 266.020172,220.721039 
	C268.251953,222.179565 270.483704,223.638077 273.108002,225.664124 
	C277.515076,228.794983 281.922119,231.925827 286.857697,235.432129 
	C288.366058,229.805862 289.680969,224.901169 291.438385,219.429535 
M256.946869,222.276123 
	C253.861481,219.705368 250.871964,217.001602 247.622055,214.659103 
	C246.828156,214.086853 245.180786,214.698715 243.257538,214.962845 
	C240.979568,216.569000 238.701584,218.175171 235.825378,219.924622 
	C234.521591,220.880707 233.217804,221.836792 231.244400,222.983276 
	C228.966187,224.552475 226.687973,226.121689 223.822083,227.915787 
	C222.022217,229.168823 220.222366,230.421875 217.826279,231.913437 
	C215.226105,233.620300 212.625931,235.327179 209.278656,237.524490 
	C217.916428,244.012207 225.945862,250.043015 234.321793,256.638611 
	C237.285034,258.953094 240.102493,261.505951 243.289398,263.454681 
	C244.427383,264.150543 246.459610,263.383972 248.748062,263.071777 
	C251.021820,261.485443 253.295563,259.899078 256.181915,258.093231 
	C258.134064,256.735413 260.086212,255.377579 262.674438,253.819885 
	C264.320526,252.664230 265.966614,251.508575 268.183228,250.103882 
	C269.517090,249.101578 270.850983,248.099258 272.852844,246.950470 
	C275.666901,245.061722 278.480927,243.172989 282.222809,240.661469 
	C273.307892,234.369965 265.209991,228.655060 256.946869,222.276123 
M233.005661,311.188263 
	C234.797791,311.539337 236.589905,311.890411 239.032959,312.369019 
	C239.032959,307.433136 239.032959,303.255798 239.032959,299.051453 
	C245.193542,302.519012 244.583908,313.530243 254.762268,311.802429 
	C254.762268,303.339691 254.762268,295.242798 254.762268,286.890778 
	C252.845337,286.890778 251.097885,286.890778 248.752884,286.890778 
	C248.752884,291.515961 248.752884,295.977600 248.752884,300.245117 
	C242.622314,296.619293 243.606491,285.356018 232.956589,286.837585 
	C232.956589,294.935791 232.956589,302.584930 233.005661,311.188263 
M296.157593,304.298401 
	C298.460388,311.123535 301.720795,312.983978 310.008606,312.202026 
	C315.978455,311.638763 318.892059,308.829254 319.562836,302.129089 
	C319.871124,299.049835 319.734192,295.708282 318.814697,292.796570 
	C318.147919,290.685211 316.222534,288.325043 314.238220,287.385101 
	C304.362610,282.707031 296.016754,288.152771 295.910126,299.038300 
	C295.895477,300.533203 296.002777,302.029297 296.157593,304.298401 
M182.843155,290.470978 
	C182.208649,294.175354 181.056473,297.878754 181.049438,301.584320 
	C181.035568,308.872803 184.206451,311.872711 191.296432,312.267609 
	C199.639862,312.732330 203.434082,310.208191 204.414154,302.832062 
	C204.841690,299.614380 204.703659,296.112305 203.850784,293.006195 
	C203.268188,290.884430 201.371597,288.322601 199.422485,287.528564 
	C193.802597,285.239227 188.059372,285.076263 182.843155,290.470978 
M214.350113,297.667297 
	C215.147491,288.118103 223.232056,293.798889 227.726715,291.313904 
	C227.603760,289.805084 227.476364,288.241882 227.358566,286.796387 
	C217.921158,285.102081 211.996307,286.682739 209.433609,291.377625 
	C206.848587,296.113403 207.473969,306.106079 210.565689,309.466522 
	C213.705154,312.878876 222.367340,313.352722 228.681213,310.522644 
	C228.681213,306.226196 228.681213,301.992950 228.681213,297.708069 
	C225.288193,297.708069 222.217377,297.708069 219.002167,297.708069 
	C219.002167,299.390900 219.002167,300.818970 219.002167,302.247009 
	C219.308670,302.061890 219.615158,301.876740 219.921661,301.691589 
	C220.934402,302.885651 221.947144,304.079681 222.959885,305.273743 
	C221.249756,305.691681 219.374863,306.774536 217.861237,306.399445 
	C213.767014,305.384918 214.595001,301.630402 214.350113,297.667297 
M337.958435,297.152130 
	C339.995728,293.839874 342.032990,290.527588 344.052032,287.244904 
	C337.530762,284.528442 336.009827,289.538666 333.308411,294.037445 
	C331.206207,288.443573 328.393494,284.657043 322.054260,287.304077 
	C323.822449,290.145844 325.384094,293.059662 327.340179,295.678925 
	C329.086975,298.017975 329.258575,299.864807 327.395386,302.277527 
	C325.206146,305.112518 323.472900,308.299652 321.528595,311.355011 
	C328.824677,314.552216 329.723053,307.997131 332.537781,304.572479 
	C338.917358,312.404449 338.917358,312.404449 344.972992,311.457153 
	C343.953552,309.837311 342.907379,308.372986 342.068024,306.798431 
	C340.495972,303.849548 339.043732,300.836761 337.958435,297.152130 
M289.566437,286.618042 
	C288.373627,287.645233 286.565552,288.449585 286.098297,289.739532 
	C284.399475,294.429688 283.149445,299.282440 281.348175,305.363464 
	C279.172760,298.223694 277.409821,292.437592 275.760223,287.023499 
	C273.156647,287.023499 271.120178,287.023499 268.789246,287.023499 
	C271.759247,295.598511 274.567902,303.707764 277.705170,312.765747 
	C280.484070,311.894073 284.671265,311.782593 285.386719,310.149841 
	C288.623993,302.762054 290.880249,294.944366 293.618561,286.903259 
	C292.181305,286.779877 291.237488,286.698853 289.566437,286.618042 
M165.951675,297.766754 
	C165.980804,288.828888 173.424667,293.304901 178.384247,291.139130 
	C177.406464,289.405487 176.869873,286.930145 175.557495,286.409210 
	C171.397919,284.758118 164.097153,286.993103 161.776794,290.005066 
	C158.807709,293.859131 158.329071,303.775146 160.995514,308.220917 
	C163.833557,312.952789 168.488724,312.543488 172.996048,312.138947 
	C178.484634,311.646301 178.678146,311.257874 177.433487,305.755493 
	C166.839447,307.158417 166.117813,306.711639 165.951675,297.766754 
M265.941681,311.219086 
	C265.941681,303.148712 265.941681,295.078369 265.941681,286.979065 
	C263.709747,286.979065 261.855591,286.979065 260.078339,286.979065 
	C260.078339,295.493530 260.078339,303.664520 260.078339,311.933716 
	C262.039124,311.933716 263.675781,311.933716 265.941681,311.219086 
z"/>
<path fill="#6B25A2" opacity="1.000000" stroke="none" 
	d="
M258.033722,214.900162 
	C257.590729,214.693420 257.122284,214.528107 256.708557,214.273773 
	C248.899902,209.473648 248.901260,209.471451 252.266754,200.303833 
	C265.883484,195.340714 278.907318,190.692596 291.931183,186.044464 
	C301.812073,192.435928 300.239838,189.167297 296.261780,201.758484 
	C294.717743,201.722122 293.534363,201.393707 292.575012,201.721329 
	C283.647705,204.769791 274.731873,207.857117 265.875275,211.103928 
	C263.162170,212.098526 260.642151,213.619980 258.033722,214.900162 
z"/>
<path fill="#F4F3F0" opacity="1.000000" stroke="none" 
	d="
M232.981125,310.711182 
	C232.956589,302.584930 232.956589,294.935791 232.956589,286.837585 
	C243.606491,285.356018 242.622314,296.619293 248.752884,300.245117 
	C248.752884,295.977600 248.752884,291.515961 248.752884,286.890778 
	C251.097885,286.890778 252.845337,286.890778 254.762268,286.890778 
	C254.762268,295.242798 254.762268,303.339691 254.762268,311.802429 
	C244.583908,313.530243 245.193542,302.519012 239.032959,299.051453 
	C239.032959,303.255798 239.032959,307.433136 239.032959,312.369019 
	C236.589905,311.890411 234.797791,311.539337 232.981125,310.711182 
z"/>
<path fill="#EFEEEB" opacity="1.000000" stroke="none" 
	d="
M296.105591,303.911621 
	C296.002777,302.029297 295.895477,300.533203 295.910126,299.038300 
	C296.016754,288.152771 304.362610,282.707031 314.238220,287.385101 
	C316.222534,288.325043 318.147919,290.685211 318.814697,292.796570 
	C319.734192,295.708282 319.871124,299.049835 319.562836,302.129089 
	C318.892059,308.829254 315.978455,311.638763 310.008606,312.202026 
	C301.720795,312.983978 298.460388,311.123535 296.105591,303.911621 
M302.810638,294.464539 
	C302.624786,296.929047 301.842743,299.552307 302.443329,301.807373 
	C302.916473,303.583832 304.952545,305.949921 306.549377,306.165497 
	C308.524994,306.432251 312.448090,304.952942 312.580811,303.867462 
	C313.018250,300.289642 312.581818,296.384155 311.362152,293.008759 
	C311.115082,292.324921 305.980133,293.407257 302.810638,294.464539 
z"/>
<path fill="#EFEEEB" opacity="1.000000" stroke="none" 
	d="
M183.037415,290.143127 
	C188.059372,285.076263 193.802597,285.239227 199.422485,287.528564 
	C201.371597,288.322601 203.268188,290.884430 203.850784,293.006195 
	C204.703659,296.112305 204.841690,299.614380 204.414154,302.832062 
	C203.434082,310.208191 199.639862,312.732330 191.296432,312.267609 
	C184.206451,311.872711 181.035568,308.872803 181.049438,301.584320 
	C181.056473,297.878754 182.208649,294.175354 183.037415,290.143127 
M196.093887,305.978699 
	C199.748657,302.351929 198.594162,297.942322 197.458099,293.956696 
	C196.613113,290.992249 189.007675,290.890839 188.251801,293.838989 
	C187.390930,297.196564 187.394257,301.105194 188.318146,304.412201 
	C188.641541,305.569763 192.812210,305.652496 196.093887,305.978699 
z"/>
<path fill="#EFEEEB" opacity="1.000000" stroke="none" 
	d="
M214.325897,298.130249 
	C214.595001,301.630402 213.767014,305.384918 217.861237,306.399445 
	C219.374863,306.774536 221.249756,305.691681 222.959885,305.273743 
	C221.947144,304.079681 220.934402,302.885651 219.921661,301.691589 
	C219.615158,301.876740 219.308670,302.061890 219.002167,302.247009 
	C219.002167,300.818970 219.002167,299.390900 219.002167,297.708069 
	C222.217377,297.708069 225.288193,297.708069 228.681213,297.708069 
	C228.681213,301.992950 228.681213,306.226196 228.681213,310.522644 
	C222.367340,313.352722 213.705154,312.878876 210.565689,309.466522 
	C207.473969,306.106079 206.848587,296.113403 209.433609,291.377625 
	C211.996307,286.682739 217.921158,285.102081 227.358566,286.796387 
	C227.476364,288.241882 227.603760,289.805084 227.726715,291.313904 
	C223.232056,293.798889 215.147491,288.118103 214.325897,298.130249 
z"/>
<path fill="#EFEEEB" opacity="1.000000" stroke="none" 
	d="
M337.750031,297.501343 
	C339.043732,300.836761 340.495972,303.849548 342.068024,306.798431 
	C342.907379,308.372986 343.953552,309.837311 344.972992,311.457153 
	C338.917358,312.404449 338.917358,312.404449 332.537781,304.572479 
	C329.723053,307.997131 328.824677,314.552216 321.528595,311.355011 
	C323.472900,308.299652 325.206146,305.112518 327.395386,302.277527 
	C329.258575,299.864807 329.086975,298.017975 327.340179,295.678925 
	C325.384094,293.059662 323.822449,290.145844 322.054260,287.304077 
	C328.393494,284.657043 331.206207,288.443573 333.308411,294.037445 
	C336.009827,289.538666 337.530762,284.528442 344.052032,287.244904 
	C342.032990,290.527588 339.995728,293.839874 337.750031,297.501343 
z"/>
<path fill="#EFEEEB" opacity="1.000000" stroke="none" 
	d="
M289.930054,286.617920 
	C291.237488,286.698853 292.181305,286.779877 293.618561,286.903259 
	C290.880249,294.944366 288.623993,302.762054 285.386719,310.149841 
	C284.671265,311.782593 280.484070,311.894073 277.705170,312.765747 
	C274.567902,303.707764 271.759247,295.598511 268.789246,287.023499 
	C271.120178,287.023499 273.156647,287.023499 275.760223,287.023499 
	C277.409821,292.437592 279.172760,298.223694 281.348175,305.363464 
	C283.149445,299.282440 284.399475,294.429688 286.098297,289.739532 
	C286.565552,288.449585 288.373627,287.645233 289.930054,286.617920 
z"/>
<path fill="#6B25A2" opacity="1.000000" stroke="none" 
	d="
M231.914032,222.792877 
	C233.217804,221.836792 234.521591,220.880707 236.485474,219.997696 
	C238.238602,221.289505 239.484192,222.404068 240.399338,223.744278 
	C245.457245,231.151642 250.358109,238.667252 255.478439,246.030563 
	C257.439423,248.850540 259.838776,251.365692 262.038361,254.019745 
	C260.086212,255.377579 258.134064,256.735413 255.523453,258.027710 
	C247.690063,247.616592 240.484528,237.291946 233.383163,226.896133 
	C232.590302,225.735458 232.389435,224.170410 231.914032,222.792877 
z"/>
<path fill="#EFEEEB" opacity="1.000000" stroke="none" 
	d="
M165.942093,298.200806 
	C166.117813,306.711639 166.839447,307.158417 177.433487,305.755493 
	C178.678146,311.257874 178.484634,311.646301 172.996048,312.138947 
	C168.488724,312.543488 163.833557,312.952789 160.995514,308.220917 
	C158.329071,303.775146 158.807709,293.859131 161.776794,290.005066 
	C164.097153,286.993103 171.397919,284.758118 175.557495,286.409210 
	C176.869873,286.930145 177.406464,289.405487 178.384247,291.139130 
	C173.424667,293.304901 165.980804,288.828888 165.942093,298.200806 
z"/>
<path fill="#5C2EA1" opacity="1.000000" stroke="none" 
	d="
M231.579224,222.888077 
	C232.389435,224.170410 232.590302,225.735458 233.383163,226.896133 
	C240.484528,237.291946 247.690063,247.616592 255.217163,258.137451 
	C253.295563,259.899078 251.021820,261.485443 248.364365,262.800995 
	C240.559204,251.158508 233.143204,239.783218 225.691711,228.431229 
	C225.449814,228.062729 224.845245,227.932297 224.409760,227.690887 
	C226.687973,226.121689 228.966187,224.552475 231.579224,222.888077 
z"/>
<path fill="#4D379E" opacity="1.000000" stroke="none" 
	d="
M224.115906,227.803345 
	C224.845245,227.932297 225.449814,228.062729 225.691711,228.431229 
	C233.143204,239.783218 240.559204,251.158508 248.032166,262.907562 
	C246.459610,263.383972 244.427383,264.150543 243.289398,263.454681 
	C240.102493,261.505951 237.285034,258.953094 234.150757,255.979950 
	C228.794006,247.439163 223.608261,239.557053 218.422516,231.674927 
	C220.222366,230.421875 222.022217,229.168823 224.115906,227.803345 
z"/>
<path fill="#7B1BA3" opacity="1.000000" stroke="none" 
	d="
M258.236053,215.163483 
	C260.642151,213.619980 263.162170,212.098526 265.875275,211.103928 
	C274.731873,207.857117 283.647705,204.769791 292.575012,201.721329 
	C293.534363,201.393707 294.717743,201.722122 296.035461,202.052094 
	C295.650177,204.711121 295.026642,207.064240 293.796051,209.714783 
	C284.000580,213.395630 274.812134,216.779068 265.623657,220.162506 
	C263.228577,218.583923 260.833466,217.005356 258.236053,215.163483 
z"/>
<path fill="#7B1BA3" opacity="1.000000" stroke="none" 
	d="
M262.356384,253.919815 
	C259.838776,251.365692 257.439423,248.850540 255.478439,246.030563 
	C250.358109,238.667252 245.457245,231.151642 240.399338,223.744278 
	C239.484192,222.404068 238.238602,221.289505 236.784592,219.926056 
	C238.701584,218.175171 240.979568,216.569000 243.616089,215.250854 
	C251.561188,226.992050 259.145325,238.446838 266.751038,249.887283 
	C266.910614,250.127335 267.319916,250.201401 267.612701,250.352905 
	C265.966614,251.508575 264.320526,252.664230 262.356384,253.919815 
z"/>
<path fill="#5C2EA1" opacity="1.000000" stroke="none" 
	d="
M291.750122,185.767319 
	C278.907318,190.692596 265.883484,195.340714 252.475586,200.000946 
	C252.766541,197.484589 253.441513,194.956100 254.703186,192.146271 
	C262.763702,189.443863 270.284973,187.156143 277.683502,184.523499 
	C280.013519,183.694412 282.014435,181.940338 284.165955,180.609619 
	C286.633667,182.236465 289.101349,183.863327 291.750122,185.767319 
z"/>
<path fill="#8515A4" opacity="1.000000" stroke="none" 
	d="
M267.897949,250.228394 
	C267.319916,250.201401 266.910614,250.127335 266.751038,249.887283 
	C259.145325,238.446838 251.561188,226.992050 243.950226,215.152527 
	C245.180786,214.698715 246.828156,214.086853 247.622055,214.659103 
	C250.871964,217.001602 253.861481,219.705368 256.777161,222.802612 
	C261.799896,231.251694 266.992371,239.174316 272.184845,247.096939 
	C270.850983,248.099258 269.517090,249.101578 267.897949,250.228394 
z"/>
<path fill="#910CA3" opacity="1.000000" stroke="none" 
	d="
M272.518860,247.023712 
	C266.992371,239.174316 261.799896,231.251694 256.859741,223.134613 
	C265.209991,228.655060 273.307892,234.369965 282.222809,240.661469 
	C278.480927,243.172989 275.666901,245.061722 272.518860,247.023712 
z"/>
<path fill="#4D379E" opacity="1.000000" stroke="none" 
	d="
M283.970093,180.359589 
	C282.014435,181.940338 280.013519,183.694412 277.683502,184.523499 
	C270.284973,187.156143 262.763702,189.443863 254.868591,191.842422 
	C255.219803,189.102417 255.992294,186.384903 257.332855,183.332275 
	C264.356201,180.615463 270.811462,178.233765 277.266724,175.852051 
	C279.435913,177.271210 281.605072,178.690384 283.970093,180.359589 
z"/>
<path fill="#8515A4" opacity="1.000000" stroke="none" 
	d="
M265.821899,220.441772 
	C274.812134,216.779068 284.000580,213.395630 293.577271,210.000610 
	C293.123138,213.135880 292.280762,216.282700 290.806946,219.713135 
	C288.415741,220.345581 286.610504,220.547028 284.905212,221.072708 
	C280.816986,222.332916 276.775696,223.745499 272.715485,225.096603 
	C270.483704,223.638077 268.251953,222.179565 265.821899,220.441772 
z"/>
<path fill="#3F3E9B" opacity="1.000000" stroke="none" 
	d="
M218.124390,231.794189 
	C223.608261,239.557053 228.794006,247.439163 233.977509,255.697556 
	C225.945862,250.043015 217.916428,244.012207 209.278656,237.524490 
	C212.625931,235.327179 215.226105,233.620300 218.124390,231.794189 
z"/>
<path fill="#3F3E9B" opacity="1.000000" stroke="none" 
	d="
M277.070251,175.572617 
	C270.811462,178.233765 264.356201,180.615463 257.506042,183.000076 
	C258.693146,177.312149 260.275177,171.621338 262.143250,164.901520 
	C267.554993,168.719238 272.214355,172.006210 277.070251,175.572617 
z"/>
<path fill="#F4F3F0" opacity="1.000000" stroke="none" 
	d="
M265.627075,311.576416 
	C263.675781,311.933716 262.039124,311.933716 260.078339,311.933716 
	C260.078339,303.664520 260.078339,295.493530 260.078339,286.979065 
	C261.855591,286.979065 263.709747,286.979065 265.941681,286.979065 
	C265.941681,295.078369 265.941681,303.148712 265.627075,311.576416 
z"/>
<path fill="#910CA3" opacity="1.000000" stroke="none" 
	d="
M272.911743,225.380371 
	C276.775696,223.745499 280.816986,222.332916 284.905212,221.072708 
	C286.610504,220.547028 288.415741,220.345581 290.585724,219.996582 
	C289.680969,224.901169 288.366058,229.805862 286.857697,235.432129 
	C281.922119,231.925827 277.515076,228.794983 272.911743,225.380371 
z"/>
<path fill="#8515A4" opacity="1.000000" stroke="none" 
	d="
M246.114624,185.932068 
	C246.342514,186.762268 247.029480,187.859467 246.726303,188.380844 
	C244.103363,192.891373 241.302261,197.298294 238.193146,202.319199 
	C236.103531,199.793259 234.461502,197.808334 233.041855,195.347839 
	C237.547699,191.892181 241.831161,188.912125 246.114624,185.932068 
z"/>
<path fill="#4D379E" opacity="1.000000" stroke="none" 
	d="
M233.937820,202.130768 
	C234.310928,203.334335 235.368301,204.919205 234.944916,205.678955 
	C232.404205,210.238419 229.523193,214.608231 226.444199,219.541489 
	C224.452377,217.235626 222.876022,215.410736 221.488815,213.113770 
	C225.764572,209.138046 229.851196,205.634399 233.937820,202.130768 
z"/>
<path fill="#6B25A2" opacity="1.000000" stroke="none" 
	d="
M233.849442,201.833206 
	C229.851196,205.634399 225.764572,209.138046 221.388947,212.794556 
	C220.118622,211.844162 219.137329,210.740921 218.331070,209.193817 
	C222.727936,205.471649 226.949768,202.193329 231.171600,198.915009 
	C232.034760,199.788544 232.897919,200.662094 233.849442,201.833206 
z"/>
<path fill="#6B25A2" opacity="1.000000" stroke="none" 
	d="
M246.043930,185.604156 
	C241.831161,188.912125 237.547699,191.892181 232.922653,195.017273 
	C231.773163,194.317200 230.965256,193.472107 230.199249,192.048630 
	C234.198990,187.890900 238.156799,184.311569 242.114624,180.732239 
	C243.400833,182.246902 244.687042,183.761581 246.043930,185.604156 
z"/>
<path fill="#4D379E" opacity="1.000000" stroke="none" 
	d="
M242.039001,180.446274 
	C238.156799,184.311569 234.198990,187.890900 230.083084,191.775970 
	C227.271164,190.283157 226.212219,188.221970 229.406616,185.269638 
	C233.317093,182.649796 236.670776,180.312408 240.024460,177.975021 
	C240.670761,178.703461 241.317078,179.431885 242.039001,180.446274 
z"/>
<path fill="#7B1BA3" opacity="1.000000" stroke="none" 
	d="
M231.062561,198.611359 
	C226.949768,202.193329 222.727936,205.471649 218.198029,208.902374 
	C217.317810,207.455383 216.745651,205.855988 216.787933,204.077057 
	C220.948639,200.903915 224.494919,197.910324 228.041199,194.916748 
	C229.011963,196.047073 229.982742,197.177399 231.062561,198.611359 
z"/>
<path fill="#910CA3" opacity="1.000000" stroke="none" 
	d="
M227.918625,194.611847 
	C224.494919,197.910324 220.948639,200.903915 217.029724,203.897461 
	C219.179230,199.587662 221.701370,195.277908 224.470444,190.546204 
	C225.896591,192.158951 226.846313,193.232941 227.918625,194.611847 
z"/>
<path fill="#3F3E9B" opacity="1.000000" stroke="none" 
	d="
M239.895477,177.661896 
	C236.670776,180.312408 233.317093,182.649796 229.620743,184.998596 
	C231.043564,182.015869 232.795593,179.013672 234.584595,176.033630 
	C234.999100,175.343170 235.539703,174.728409 236.317719,173.681137 
	C237.600052,175.044846 238.683273,176.196793 239.895477,177.661896 
z"/>
<path fill="#080808" opacity="1.000000" stroke="none" 
	d="
M302.954590,294.069946 
	C305.980133,293.407257 311.115082,292.324921 311.362152,293.008759 
	C312.581818,296.384155 313.018250,300.289642 312.580811,303.867462 
	C312.448090,304.952942 308.524994,306.432251 306.549377,306.165497 
	C304.952545,305.949921 302.916473,303.583832 302.443329,301.807373 
	C301.842743,299.552307 302.624786,296.929047 302.954590,294.069946 
z"/>
<path fill="#080808" opacity="1.000000" stroke="none" 
	d="
M195.659943,306.102386 
	C192.812210,305.652496 188.641541,305.569763 188.318146,304.412201 
	C187.394257,301.105194 187.390930,297.196564 188.251801,293.838989 
	C189.007675,290.890839 196.613113,290.992249 197.458099,293.956696 
	C198.594162,297.942322 199.748657,302.351929 195.659943,306.102386 
z"/>
</svg>